<?xml version="1.0" encoding="UTF-8"?>
<svg id="Layer_2" data-name="Layer 2" xmlns="http://www.w3.org/2000/svg" viewBox="0 0 954.36 1055">
  <defs>
    <style>
      .cls-1 {
        fill: #f79b84;
      }

      .cls-2 {
        fill: #f4bf57;
      }

      .cls-3 {
        fill: #fed97c;
      }

      .cls-4 {
        fill: #cd7f25;
      }

      .cls-5 {
        fill: #ad6b24;
      }

      .cls-6 {
        fill: #fed97d;
      }

      .cls-7 {
        fill: #f1b64b;
      }

      .cls-8 {
        fill: #e18c26;
      }

      .cls-9 {
        fill: #f2b84e;
      }

      .cls-10 {
        fill: #ac6a24;
      }

      .cls-11 {
        fill: #e7b354;
      }

      .cls-12 {
        fill: #fec25f;
      }

      .cls-13 {
        fill: #fdd77a;
      }

      .cls-14 {
        fill: #f0493f;
      }

      .cls-15 {
        fill: #eca533;
      }

      .cls-16 {
        fill: #fee9a7;
      }

      .cls-17 {
        fill: #ec9427;
      }
    </style>
  </defs>
  <g id="Layer_1-2" data-name="Layer 1">
    <g>
      <rect class="cls-17" x="848.32" y="949.5" width="106.04" height="105.5"/>
      <rect class="cls-3" x="742.28" y="949.5" width="106.04" height="105.5"/>
      <rect class="cls-17" x="848.32" y="844" width="106.04" height="105.5"/>
      <rect class="cls-15" x="742.28" y="844" width="106.04" height="105.5"/>
      <rect class="cls-3" x="636.24" y="844" width="106.04" height="105.5"/>
      <rect class="cls-3" x="530.2" y="844" width="106.04" height="105.5"/>
      <rect class="cls-3" x="424.16" y="844" width="106.04" height="105.5"/>
      <rect class="cls-17" x="848.32" y="738.5" width="106.04" height="105.5"/>
      <rect class="cls-5" x="742.28" y="738.5" width="106.04" height="105.5"/>
      <rect class="cls-3" x="636.24" y="738.5" width="106.04" height="105.5"/>
      <rect class="cls-3" x="530.2" y="738.5" width="106.04" height="105.5"/>
      <rect class="cls-16" x="424.16" y="738.5" width="106.04" height="105.5"/>
      <rect class="cls-15" x="318.12" y="738.5" width="106.04" height="105.5"/>
      <rect class="cls-3" x="212.08" y="738.5" width="106.04" height="105.5"/>
      <rect class="cls-10" x="848.32" y="633" width="106.04" height="105.5"/>
      <rect class="cls-17" x="742.28" y="633" width="106.04" height="105.5"/>
      <rect class="cls-15" x="636.24" y="633" width="106.04" height="105.5"/>
      <rect class="cls-9" x="530.2" y="633" width="106.04" height="105.5"/>
      <rect class="cls-3" x="424.16" y="633" width="106.04" height="105.5"/>
      <rect class="cls-15" x="318.12" y="633" width="106.04" height="105.5"/>
      <rect class="cls-6" x="212.08" y="633" width="106.04" height="105.5"/>
      <rect class="cls-12" x="742.28" y="527.5" width="106.04" height="105.5"/>
      <rect class="cls-15" x="636.24" y="527.5" width="106.04" height="105.5"/>
      <rect class="cls-14" x="530.2" y="527.5" width="106.04" height="105.5"/>
      <rect class="cls-14" x="424.16" y="527.5" width="106.04" height="105.5"/>
      <rect class="cls-15" x="318.12" y="527.5" width="106.04" height="105.5"/>
      <rect class="cls-15" x="212.08" y="527.5" width="106.04" height="105.5"/>
      <rect class="cls-8" x="742.28" y="422" width="106.04" height="105.5"/>
      <rect class="cls-17" x="636.24" y="422" width="106.04" height="105.5"/>
      <rect class="cls-1" x="530.2" y="422" width="106.04" height="105.5"/>
      <rect class="cls-1" x="424.16" y="422" width="106.04" height="105.5"/>
      <rect class="cls-14" x="318.12" y="422" width="106.04" height="105.5"/>
      <rect class="cls-2" x="212.08" y="422" width="106.04" height="105.5"/>
      <rect class="cls-11" x="106.04" y="422" width="106.04" height="105.5"/>
      <rect class="cls-17" x="636.24" y="316.5" width="106.04" height="105.5"/>
      <rect class="cls-14" x="530.2" y="316.5" width="106.04" height="105.5"/>
      <rect class="cls-14" x="424.16" y="316.5" width="106.04" height="105.5"/>
      <rect class="cls-14" x="318.12" y="316.5" width="106.04" height="105.5"/>
      <rect class="cls-15" x="212.08" y="316.5" width="106.04" height="105.5"/>
      <rect class="cls-3" x="106.04" y="316.5" width="106.04" height="105.5"/>
      <rect class="cls-17" x="530.2" y="211" width="106.04" height="105.5"/>
      <rect class="cls-17" x="424.16" y="211" width="106.04" height="105.5"/>
      <rect class="cls-7" x="318.12" y="211" width="106.04" height="105.5"/>
      <rect class="cls-3" x="212.08" y="211" width="106.04" height="105.5"/>
      <rect class="cls-15" x="106.04" y="211" width="106.04" height="105.5"/>
      <rect class="cls-10" x="424.16" y="105.5" width="106.04" height="105.5"/>
      <rect class="cls-12" x="318.12" y="105.5" width="106.04" height="105.5"/>
      <rect class="cls-12" x="212.08" y="105.5" width="106.04" height="105.5"/>
      <rect class="cls-12" x="106.04" y="105.5" width="106.04" height="105.5"/>
      <rect class="cls-13" y="105.5" width="106.04" height="105.5"/>
      <rect class="cls-10" x="106.04" width="106.04" height="105.5"/>
      <rect class="cls-4" width="106.04" height="105.5"/>
    </g>
  </g>
</svg>