<?xml version="1.0" encoding="UTF-8"?>
<svg id="Layer_2" data-name="Layer 2" xmlns="http://www.w3.org/2000/svg" viewBox="0 0 2332.88 2110">
  <defs>
    <style>
      .cls-1 {
        fill: #eca331;
      }

      .cls-2 {
        fill: #fed87b;
      }

      .cls-3 {
        fill: #8656a3;
      }

      .cls-4 {
        fill: #d18c2c;
      }

      .cls-5 {
        fill: #f79b84;
      }

      .cls-6 {
        fill: #d08125;
      }

      .cls-7 {
        fill: #fed97c;
      }

      .cls-8 {
        fill: #d98725;
      }

      .cls-9 {
        fill: #37ac81;
      }

      .cls-10 {
        fill: #d3da27;
      }

      .cls-11 {
        fill: #fbd273;
      }

      .cls-12 {
        fill: #ec9c2d;
      }

      .cls-13 {
        fill: #eda837;
      }

      .cls-14 {
        fill: #fff0b9;
      }

      .cls-15 {
        fill: #fed07a;
      }

      .cls-16 {
        fill: #eca534;
      }

      .cls-17 {
        fill: #b58524;
      }

      .cls-18 {
        fill: #eab85a;
      }

      .cls-19 {
        fill: #ec9729;
      }

      .cls-20 {
        fill: #e49d30;
      }

      .cls-21 {
        fill: #f7c662;
      }

      .cls-22 {
        fill: #eb972b;
      }

      .cls-23 {
        fill: #3554a5;
      }

      .cls-24 {
        fill: #fdd678;
      }

      .cls-25 {
        fill: #53babf;
      }

      .cls-26 {
        fill: #ef9e33;
      }

      .cls-27 {
        fill: #f1b64b;
      }

      .cls-28 {
        fill: #d2dd27;
      }

      .cls-29 {
        fill: #f6c25c;
      }

      .cls-30 {
        fill: #fee69f;
      }

      .cls-31 {
        fill: #f9d174;
      }

      .cls-32 {
        fill: #ac6a24;
      }

      .cls-33 {
        fill: #eba432;
      }

      .cls-34 {
        fill: #ec962a;
      }

      .cls-35 {
        fill: #ec9529;
      }

      .cls-36 {
        fill: #bf588d;
      }

      .cls-37 {
        fill: #e79126;
      }

      .cls-38 {
        fill: #e7b354;
      }

      .cls-39 {
        fill: #c356a0;
      }

      .cls-40 {
        fill: #8656a2;
      }

      .cls-41 {
        fill: #fec25f;
      }

      .cls-42 {
        fill: #d66f95;
      }

      .cls-43 {
        fill: #f4b247;
      }

      .cls-44 {
        fill: #f9cd6c;
      }

      .cls-45 {
        fill: #f6ae46;
      }

      .cls-46 {
        fill: #01af9a;
      }

      .cls-47 {
        fill: #eca030;
      }

      .cls-48 {
        fill: #f3ba51;
      }

      .cls-49 {
        fill: #28b4ab;
      }

      .cls-50 {
        fill: #fdd77a;
      }

      .cls-51 {
        fill: #ac56a0;
      }

      .cls-52 {
        fill: #c17724;
      }

      .cls-53 {
        fill: #fab954;
      }

      .cls-54 {
        fill: #fdd87b;
      }

      .cls-55 {
        fill: #f3ba50;
      }

      .cls-56 {
        fill: #eca533;
      }

      .cls-57 {
        fill: #c57a24;
      }

      .cls-58 {
        fill: #ee992e;
      }

      .cls-59 {
        fill: #df8b26;
      }

      .cls-60 {
        fill: #ec9427;
      }

      .cls-61 {
        fill: #b06e24;
      }

      .cls-62 {
        fill: #eb9326;
      }
    </style>
  </defs>
  <g id="Layer_1-2" data-name="Layer 1">
    <g>
      <rect class="cls-32" x="1590.6" y="2004.5" width="106.04" height="105.5"/>
      <rect class="cls-60" x="1484.56" y="2004.5" width="106.04" height="105.5"/>
      <rect class="cls-60" x="1378.52" y="2004.5" width="106.04" height="105.5"/>
      <rect class="cls-60" x="1272.48" y="2004.5" width="106.04" height="105.5"/>
      <rect class="cls-41" x="1166.44" y="2004.5" width="106.04" height="105.5"/>
      <rect class="cls-43" x="1060.4" y="2004.5" width="106.04" height="105.5"/>
      <rect class="cls-41" x="954.36" y="2004.5" width="106.04" height="105.5"/>
      <rect class="cls-53" x="848.32" y="2004.5" width="106.04" height="105.5"/>
      <rect class="cls-60" x="742.28" y="2004.5" width="106.04" height="105.5"/>
      <rect class="cls-57" x="636.24" y="2004.5" width="106.04" height="105.5"/>
      <rect class="cls-59" x="1802.68" y="1899" width="106.04" height="105.5"/>
      <rect class="cls-60" x="1696.64" y="1899" width="106.04" height="105.5"/>
      <rect class="cls-41" x="1590.6" y="1899" width="106.04" height="105.5"/>
      <rect class="cls-60" x="1484.56" y="1899" width="106.04" height="105.5"/>
      <rect class="cls-12" x="1378.52" y="1899" width="106.04" height="105.5"/>
      <rect class="cls-28" x="1272.48" y="1899" width="106.04" height="105.5"/>
      <rect class="cls-17" x="1166.44" y="1899" width="106.04" height="105.5"/>
      <rect class="cls-41" x="1060.4" y="1899" width="106.04" height="105.5"/>
      <rect class="cls-41" x="954.36" y="1899" width="106.04" height="105.5"/>
      <rect class="cls-41" x="848.32" y="1899" width="106.04" height="105.5"/>
      <rect class="cls-60" x="742.28" y="1899" width="106.04" height="105.5"/>
      <rect class="cls-62" x="636.24" y="1899" width="106.04" height="105.5"/>
      <rect class="cls-60" x="530.2" y="1899" width="106.04" height="105.5"/>
      <rect class="cls-37" x="424.16" y="1899" width="106.04" height="105.5"/>
      <rect class="cls-60" x="2014.76" y="1793.5" width="106.04" height="105.5"/>
      <rect class="cls-60" x="1908.72" y="1793.5" width="106.04" height="105.5"/>
      <rect class="cls-60" x="1802.68" y="1793.5" width="106.04" height="105.5"/>
      <rect class="cls-60" x="1696.64" y="1793.5" width="106.04" height="105.5"/>
      <rect class="cls-56" x="1590.6" y="1793.5" width="106.04" height="105.5"/>
      <rect class="cls-60" x="1484.56" y="1793.5" width="106.04" height="105.5"/>
      <rect class="cls-28" x="1378.52" y="1793.5" width="106.04" height="105.5"/>
      <rect class="cls-14" x="1272.48" y="1793.5" width="106.04" height="105.5"/>
      <rect class="cls-28" x="1166.44" y="1793.5" width="106.04" height="105.5"/>
      <rect class="cls-28" x="1060.4" y="1793.5" width="106.04" height="105.5"/>
      <rect class="cls-56" x="954.36" y="1793.5" width="106.04" height="105.5"/>
      <rect class="cls-56" x="848.32" y="1793.5" width="106.04" height="105.5"/>
      <rect class="cls-56" x="742.28" y="1793.5" width="106.04" height="105.5"/>
      <rect class="cls-56" x="636.24" y="1793.5" width="106.04" height="105.5"/>
      <rect class="cls-41" x="530.2" y="1793.5" width="106.04" height="105.5"/>
      <rect class="cls-60" x="424.16" y="1793.5" width="106.04" height="105.5"/>
      <rect class="cls-60" x="318.12" y="1793.5" width="106.04" height="105.5"/>
      <rect class="cls-32" x="2120.8" y="1688" width="106.04" height="105.5"/>
      <rect class="cls-60" x="2014.76" y="1688" width="106.04" height="105.5"/>
      <rect class="cls-60" x="1908.72" y="1688" width="106.04" height="105.5"/>
      <rect class="cls-56" x="1802.68" y="1688" width="106.04" height="105.5"/>
      <rect class="cls-7" x="1696.64" y="1688" width="106.04" height="105.5"/>
      <rect class="cls-7" x="1590.6" y="1688" width="106.04" height="105.5"/>
      <rect class="cls-11" x="1484.56" y="1688" width="106.04" height="105.5"/>
      <rect class="cls-56" x="1378.52" y="1688" width="106.04" height="105.5"/>
      <rect class="cls-14" x="1272.48" y="1688" width="106.04" height="105.5"/>
      <rect class="cls-28" x="1166.44" y="1688" width="106.04" height="105.5"/>
      <rect class="cls-28" x="1060.4" y="1688" width="106.04" height="105.5"/>
      <rect class="cls-7" x="954.36" y="1688" width="106.04" height="105.5"/>
      <rect class="cls-7" x="848.32" y="1688" width="106.04" height="105.5"/>
      <rect class="cls-31" x="742.28" y="1688" width="106.04" height="105.5"/>
      <rect class="cls-7" x="636.24" y="1688" width="106.04" height="105.5"/>
      <rect class="cls-56" x="530.2" y="1688" width="106.04" height="105.5"/>
      <rect class="cls-58" x="424.16" y="1688" width="106.04" height="105.5"/>
      <rect class="cls-60" x="318.12" y="1688" width="106.04" height="105.5"/>
      <rect class="cls-26" x="212.08" y="1688" width="106.04" height="105.5"/>
      <rect class="cls-60" x="2120.8" y="1582.5" width="106.04" height="105.5"/>
      <rect class="cls-60" x="2014.76" y="1582.5" width="106.04" height="105.5"/>
      <rect class="cls-7" x="1908.72" y="1582.5" width="106.04" height="105.5"/>
      <rect class="cls-7" x="1802.68" y="1582.5" width="106.04" height="105.5"/>
      <rect class="cls-56" x="1696.64" y="1582.5" width="106.04" height="105.5"/>
      <rect class="cls-27" x="1590.6" y="1582.5" width="106.04" height="105.5"/>
      <rect class="cls-7" x="1484.56" y="1582.5" width="106.04" height="105.5"/>
      <rect class="cls-21" x="1378.52" y="1582.5" width="106.04" height="105.5"/>
      <rect class="cls-56" x="1272.48" y="1582.5" width="106.04" height="105.5"/>
      <rect class="cls-10" x="1166.44" y="1582.5" width="106.04" height="105.5"/>
      <rect class="cls-56" x="1060.4" y="1582.5" width="106.04" height="105.5"/>
      <rect class="cls-56" x="954.36" y="1582.5" width="106.04" height="105.5"/>
      <rect class="cls-56" x="848.32" y="1582.5" width="106.04" height="105.5"/>
      <rect class="cls-7" x="742.28" y="1582.5" width="106.04" height="105.5"/>
      <rect class="cls-7" x="636.24" y="1582.5" width="106.04" height="105.5"/>
      <rect class="cls-56" x="530.2" y="1582.5" width="106.04" height="105.5"/>
      <rect class="cls-46" x="424.16" y="1582.5" width="106.04" height="105.5"/>
      <rect class="cls-46" x="318.12" y="1582.5" width="106.04" height="105.5"/>
      <rect class="cls-60" x="212.08" y="1582.5" width="106.04" height="105.5"/>
      <rect class="cls-60" x="106.04" y="1582.5" width="106.04" height="105.5"/>
      <rect class="cls-60" x="2226.84" y="1477" width="106.04" height="105.5"/>
      <rect class="cls-41" x="2120.8" y="1477" width="106.04" height="105.5"/>
      <rect class="cls-56" x="2014.76" y="1477" width="106.04" height="105.5"/>
      <rect class="cls-36" x="1908.72" y="1477" width="106.04" height="105.5"/>
      <rect class="cls-39" x="1802.68" y="1477" width="106.04" height="105.5"/>
      <rect class="cls-39" x="1696.64" y="1477" width="106.04" height="105.5"/>
      <rect class="cls-19" x="1590.6" y="1477" width="106.04" height="105.5"/>
      <rect class="cls-60" x="1484.56" y="1477" width="106.04" height="105.5"/>
      <rect class="cls-56" x="1378.52" y="1477" width="106.04" height="105.5"/>
      <rect class="cls-56" x="1272.48" y="1477" width="106.04" height="105.5"/>
      <rect class="cls-56" x="1166.44" y="1477" width="106.04" height="105.5"/>
      <rect class="cls-7" x="1060.4" y="1477" width="106.04" height="105.5"/>
      <rect class="cls-7" x="954.36" y="1477" width="106.04" height="105.5"/>
      <rect class="cls-7" x="848.32" y="1477" width="106.04" height="105.5"/>
      <rect class="cls-32" x="742.28" y="1477" width="106.04" height="105.5"/>
      <rect class="cls-7" x="636.24" y="1477" width="106.04" height="105.5"/>
      <rect class="cls-46" x="530.2" y="1477" width="106.04" height="105.5"/>
      <rect class="cls-46" x="424.16" y="1477" width="106.04" height="105.5"/>
      <rect class="cls-46" x="318.12" y="1477" width="106.04" height="105.5"/>
      <rect class="cls-60" x="212.08" y="1477" width="106.04" height="105.5"/>
      <rect class="cls-41" x="106.04" y="1477" width="106.04" height="105.5"/>
      <rect class="cls-60" x="2226.84" y="1371.5" width="106.04" height="105.5"/>
      <rect class="cls-2" x="2120.8" y="1371.5" width="106.04" height="105.5"/>
      <rect class="cls-55" x="2014.76" y="1371.5" width="106.04" height="105.5"/>
      <rect class="cls-39" x="1908.72" y="1371.5" width="106.04" height="105.5"/>
      <rect class="cls-5" x="1802.68" y="1371.5" width="106.04" height="105.5"/>
      <rect class="cls-39" x="1696.64" y="1371.5" width="106.04" height="105.5"/>
      <rect class="cls-56" x="1590.6" y="1371.5" width="106.04" height="105.5"/>
      <rect class="cls-7" x="1484.56" y="1371.5" width="106.04" height="105.5"/>
      <rect class="cls-56" x="1378.52" y="1371.5" width="106.04" height="105.5"/>
      <rect class="cls-56" x="1272.48" y="1371.5" width="106.04" height="105.5"/>
      <rect class="cls-56" x="1166.44" y="1371.5" width="106.04" height="105.5"/>
      <rect class="cls-7" x="1060.4" y="1371.5" width="106.04" height="105.5"/>
      <rect class="cls-38" x="954.36" y="1371.5" width="106.04" height="105.5"/>
      <rect class="cls-38" x="848.32" y="1371.5" width="106.04" height="105.5"/>
      <rect class="cls-7" x="742.28" y="1371.5" width="106.04" height="105.5"/>
      <rect class="cls-56" x="636.24" y="1371.5" width="106.04" height="105.5"/>
      <rect class="cls-46" x="530.2" y="1371.5" width="106.04" height="105.5"/>
      <rect class="cls-25" x="424.16" y="1371.5" width="106.04" height="105.5"/>
      <rect class="cls-25" x="318.12" y="1371.5" width="106.04" height="105.5"/>
      <rect class="cls-56" x="212.08" y="1371.5" width="106.04" height="105.5"/>
      <rect class="cls-15" x="106.04" y="1371.5" width="106.04" height="105.5"/>
      <rect class="cls-6" y="1371.5" width="106.04" height="105.5"/>
      <rect class="cls-41" x="2226.84" y="1266" width="106.04" height="105.5"/>
      <rect class="cls-7" x="2120.8" y="1266" width="106.04" height="105.5"/>
      <rect class="cls-7" x="2014.76" y="1266" width="106.04" height="105.5"/>
      <rect class="cls-39" x="1908.72" y="1266" width="106.04" height="105.5"/>
      <rect class="cls-5" x="1802.68" y="1266" width="106.04" height="105.5"/>
      <rect class="cls-42" x="1696.64" y="1266" width="106.04" height="105.5"/>
      <rect class="cls-56" x="1590.6" y="1266" width="106.04" height="105.5"/>
      <rect class="cls-7" x="1484.56" y="1266" width="106.04" height="105.5"/>
      <rect class="cls-7" x="1378.52" y="1266" width="106.04" height="105.5"/>
      <rect class="cls-54" x="1272.48" y="1266" width="106.04" height="105.5"/>
      <rect class="cls-7" x="1166.44" y="1266" width="106.04" height="105.5"/>
      <rect class="cls-7" x="1060.4" y="1266" width="106.04" height="105.5"/>
      <rect class="cls-7" x="954.36" y="1266" width="106.04" height="105.5"/>
      <rect class="cls-7" x="848.32" y="1266" width="106.04" height="105.5"/>
      <rect class="cls-14" x="742.28" y="1266" width="106.04" height="105.5"/>
      <rect class="cls-56" x="636.24" y="1266" width="106.04" height="105.5"/>
      <rect class="cls-32" x="530.2" y="1266" width="106.04" height="105.5"/>
      <rect class="cls-49" x="424.16" y="1266" width="106.04" height="105.5"/>
      <rect class="cls-9" x="318.12" y="1266" width="106.04" height="105.5"/>
      <rect class="cls-7" x="212.08" y="1266" width="106.04" height="105.5"/>
      <rect class="cls-35" x="106.04" y="1266" width="106.04" height="105.5"/>
      <rect class="cls-41" y="1266" width="106.04" height="105.5"/>
      <rect class="cls-41" x="2226.84" y="1160.5" width="106.04" height="105.5"/>
      <rect class="cls-56" x="2120.8" y="1160.5" width="106.04" height="105.5"/>
      <rect class="cls-38" x="2014.76" y="1160.5" width="106.04" height="105.5"/>
      <rect class="cls-56" x="1908.72" y="1160.5" width="106.04" height="105.5"/>
      <rect class="cls-56" x="1802.68" y="1160.5" width="106.04" height="105.5"/>
      <rect class="cls-56" x="1696.64" y="1160.5" width="106.04" height="105.5"/>
      <rect class="cls-47" x="1590.6" y="1160.5" width="106.04" height="105.5"/>
      <rect class="cls-38" x="1484.56" y="1160.5" width="106.04" height="105.5"/>
      <rect class="cls-30" x="1378.52" y="1160.5" width="106.04" height="105.5"/>
      <rect class="cls-7" x="1272.48" y="1160.5" width="106.04" height="105.5"/>
      <rect class="cls-7" x="1166.44" y="1160.5" width="106.04" height="105.5"/>
      <rect class="cls-7" x="1060.4" y="1160.5" width="106.04" height="105.5"/>
      <rect class="cls-56" x="954.36" y="1160.5" width="106.04" height="105.5"/>
      <rect class="cls-56" x="848.32" y="1160.5" width="106.04" height="105.5"/>
      <rect class="cls-14" x="742.28" y="1160.5" width="106.04" height="105.5"/>
      <rect class="cls-56" x="636.24" y="1160.5" width="106.04" height="105.5"/>
      <rect class="cls-56" x="530.2" y="1160.5" width="106.04" height="105.5"/>
      <rect class="cls-56" x="424.16" y="1160.5" width="106.04" height="105.5"/>
      <rect class="cls-56" x="318.12" y="1160.5" width="106.04" height="105.5"/>
      <rect class="cls-7" x="212.08" y="1160.5" width="106.04" height="105.5"/>
      <rect class="cls-45" x="106.04" y="1160.5" width="106.04" height="105.5"/>
      <rect class="cls-41" y="1160.5" width="106.04" height="105.5"/>
      <rect class="cls-60" x="2226.84" y="1055" width="106.04" height="105.5"/>
      <rect class="cls-7" x="2120.8" y="1055" width="106.04" height="105.5"/>
      <rect class="cls-13" x="2014.76" y="1055" width="106.04" height="105.5"/>
      <rect class="cls-7" x="1908.72" y="1055" width="106.04" height="105.5"/>
      <rect class="cls-7" x="1802.68" y="1055" width="106.04" height="105.5"/>
      <rect class="cls-56" x="1696.64" y="1055" width="106.04" height="105.5"/>
      <rect class="cls-56" x="1590.6" y="1055" width="106.04" height="105.5"/>
      <rect class="cls-7" x="1484.56" y="1055" width="106.04" height="105.5"/>
      <rect class="cls-56" x="1378.52" y="1055" width="106.04" height="105.5"/>
      <rect class="cls-40" x="1272.48" y="1055" width="106.04" height="105.5"/>
      <rect class="cls-3" x="1166.44" y="1055" width="106.04" height="105.5"/>
      <rect class="cls-4" x="1060.4" y="1055" width="106.04" height="105.5"/>
      <rect class="cls-56" x="954.36" y="1055" width="106.04" height="105.5"/>
      <rect class="cls-56" x="848.32" y="1055" width="106.04" height="105.5"/>
      <rect class="cls-7" x="742.28" y="1055" width="106.04" height="105.5"/>
      <rect class="cls-56" x="636.24" y="1055" width="106.04" height="105.5"/>
      <rect class="cls-56" x="530.2" y="1055" width="106.04" height="105.5"/>
      <rect class="cls-7" x="424.16" y="1055" width="106.04" height="105.5"/>
      <rect class="cls-56" x="318.12" y="1055" width="106.04" height="105.5"/>
      <rect class="cls-7" x="212.08" y="1055" width="106.04" height="105.5"/>
      <rect class="cls-34" x="106.04" y="1055" width="106.04" height="105.5"/>
      <rect class="cls-41" y="1055" width="106.04" height="105.5"/>
      <rect class="cls-7" x="2014.76" y="949.5" width="106.04" height="105.5"/>
      <rect class="cls-7" x="1908.72" y="949.5" width="106.04" height="105.5"/>
      <rect class="cls-38" x="1802.68" y="949.5" width="106.04" height="105.5"/>
      <rect class="cls-32" x="1696.64" y="949.5" width="106.04" height="105.5"/>
      <rect class="cls-56" x="1590.6" y="949.5" width="106.04" height="105.5"/>
      <rect class="cls-44" x="1484.56" y="949.5" width="106.04" height="105.5"/>
      <rect class="cls-56" x="1378.52" y="949.5" width="106.04" height="105.5"/>
      <rect class="cls-3" x="1272.48" y="949.5" width="106.04" height="105.5"/>
      <rect class="cls-51" x="1166.44" y="949.5" width="106.04" height="105.5"/>
      <rect class="cls-3" x="1060.4" y="949.5" width="106.04" height="105.5"/>
      <rect class="cls-56" x="954.36" y="949.5" width="106.04" height="105.5"/>
      <rect class="cls-56" x="848.32" y="949.5" width="106.04" height="105.5"/>
      <rect class="cls-56" x="742.28" y="949.5" width="106.04" height="105.5"/>
      <rect class="cls-56" x="636.24" y="949.5" width="106.04" height="105.5"/>
      <rect class="cls-29" x="530.2" y="949.5" width="106.04" height="105.5"/>
      <rect class="cls-18" x="424.16" y="949.5" width="106.04" height="105.5"/>
      <rect class="cls-7" x="318.12" y="949.5" width="106.04" height="105.5"/>
      <rect class="cls-7" x="212.08" y="949.5" width="106.04" height="105.5"/>
      <rect class="cls-8" x="106.04" y="949.5" width="106.04" height="105.5"/>
      <rect class="cls-41" y="949.5" width="106.04" height="105.5"/>
      <rect class="cls-61" x="1696.64" y="844" width="106.04" height="105.5"/>
      <rect class="cls-56" x="1590.6" y="844" width="106.04" height="105.5"/>
      <rect class="cls-56" x="1484.56" y="844" width="106.04" height="105.5"/>
      <rect class="cls-56" x="1378.52" y="844" width="106.04" height="105.5"/>
      <rect class="cls-3" x="1272.48" y="844" width="106.04" height="105.5"/>
      <rect class="cls-39" x="1166.44" y="844" width="106.04" height="105.5"/>
      <rect class="cls-3" x="1060.4" y="844" width="106.04" height="105.5"/>
      <rect class="cls-50" x="954.36" y="844" width="106.04" height="105.5"/>
      <rect class="cls-7" x="848.32" y="844" width="106.04" height="105.5"/>
      <rect class="cls-24" x="742.28" y="844" width="106.04" height="105.5"/>
      <rect class="cls-7" x="636.24" y="844" width="106.04" height="105.5"/>
      <rect class="cls-38" x="530.2" y="844" width="106.04" height="105.5"/>
      <rect class="cls-7" x="424.16" y="844" width="106.04" height="105.5"/>
      <rect class="cls-56" x="318.12" y="844" width="106.04" height="105.5"/>
      <rect class="cls-7" x="212.08" y="844" width="106.04" height="105.5"/>
      <rect class="cls-41" x="106.04" y="844" width="106.04" height="105.5"/>
      <rect class="cls-52" y="844" width="106.04" height="105.5"/>
      <rect class="cls-56" x="1484.56" y="738.5" width="106.04" height="105.5"/>
      <rect class="cls-7" x="1378.52" y="738.5" width="106.04" height="105.5"/>
      <rect class="cls-56" x="1272.48" y="738.5" width="106.04" height="105.5"/>
      <rect class="cls-56" x="1166.44" y="738.5" width="106.04" height="105.5"/>
      <rect class="cls-7" x="1060.4" y="738.5" width="106.04" height="105.5"/>
      <rect class="cls-7" x="954.36" y="738.5" width="106.04" height="105.5"/>
      <rect class="cls-7" x="848.32" y="738.5" width="106.04" height="105.5"/>
      <rect class="cls-1" x="742.28" y="738.5" width="106.04" height="105.5"/>
      <rect class="cls-14" x="636.24" y="738.5" width="106.04" height="105.5"/>
      <rect class="cls-7" x="530.2" y="738.5" width="106.04" height="105.5"/>
      <rect class="cls-7" x="424.16" y="738.5" width="106.04" height="105.5"/>
      <rect class="cls-7" x="318.12" y="738.5" width="106.04" height="105.5"/>
      <rect class="cls-7" x="212.08" y="738.5" width="106.04" height="105.5"/>
      <rect class="cls-41" x="106.04" y="738.5" width="106.04" height="105.5"/>
      <rect class="cls-7" x="1484.56" y="633" width="106.04" height="105.5"/>
      <rect class="cls-7" x="1378.52" y="633" width="106.04" height="105.5"/>
      <rect class="cls-7" x="1272.48" y="633" width="106.04" height="105.5"/>
      <rect class="cls-48" x="1166.44" y="633" width="106.04" height="105.5"/>
      <rect class="cls-7" x="1060.4" y="633" width="106.04" height="105.5"/>
      <rect class="cls-14" x="954.36" y="633" width="106.04" height="105.5"/>
      <rect class="cls-56" x="848.32" y="633" width="106.04" height="105.5"/>
      <rect class="cls-7" x="742.28" y="633" width="106.04" height="105.5"/>
      <rect class="cls-56" x="636.24" y="633" width="106.04" height="105.5"/>
      <rect class="cls-7" x="530.2" y="633" width="106.04" height="105.5"/>
      <rect class="cls-7" x="424.16" y="633" width="106.04" height="105.5"/>
      <rect class="cls-14" x="318.12" y="633" width="106.04" height="105.5"/>
      <rect class="cls-41" x="212.08" y="633" width="106.04" height="105.5"/>
      <rect class="cls-60" x="106.04" y="633" width="106.04" height="105.5"/>
      <rect class="cls-7" x="1484.56" y="527.5" width="106.04" height="105.5"/>
      <rect class="cls-56" x="1378.52" y="527.5" width="106.04" height="105.5"/>
      <rect class="cls-7" x="1272.48" y="527.5" width="106.04" height="105.5"/>
      <rect class="cls-7" x="1166.44" y="527.5" width="106.04" height="105.5"/>
      <rect class="cls-56" x="1060.4" y="527.5" width="106.04" height="105.5"/>
      <rect class="cls-56" x="954.36" y="527.5" width="106.04" height="105.5"/>
      <rect class="cls-56" x="848.32" y="527.5" width="106.04" height="105.5"/>
      <rect class="cls-7" x="742.28" y="527.5" width="106.04" height="105.5"/>
      <rect class="cls-20" x="636.24" y="527.5" width="106.04" height="105.5"/>
      <rect class="cls-23" x="530.2" y="527.5" width="106.04" height="105.5"/>
      <rect class="cls-50" x="424.16" y="527.5" width="106.04" height="105.5"/>
      <rect class="cls-7" x="318.12" y="527.5" width="106.04" height="105.5"/>
      <rect class="cls-60" x="212.08" y="527.5" width="106.04" height="105.5"/>
      <rect class="cls-60" x="106.04" y="527.5" width="106.04" height="105.5"/>
      <rect class="cls-56" x="1378.52" y="422" width="106.04" height="105.5"/>
      <rect class="cls-56" x="1272.48" y="422" width="106.04" height="105.5"/>
      <rect class="cls-56" x="1166.44" y="422" width="106.04" height="105.5"/>
      <rect class="cls-7" x="1060.4" y="422" width="106.04" height="105.5"/>
      <rect class="cls-7" x="954.36" y="422" width="106.04" height="105.5"/>
      <rect class="cls-22" x="848.32" y="422" width="106.04" height="105.5"/>
      <rect class="cls-56" x="742.28" y="422" width="106.04" height="105.5"/>
      <rect class="cls-23" x="636.24" y="422" width="106.04" height="105.5"/>
      <rect class="cls-23" x="530.2" y="422" width="106.04" height="105.5"/>
      <rect class="cls-23" x="424.16" y="422" width="106.04" height="105.5"/>
      <rect class="cls-60" x="318.12" y="422" width="106.04" height="105.5"/>
      <rect class="cls-60" x="212.08" y="422" width="106.04" height="105.5"/>
      <rect class="cls-7" x="1378.52" y="316.5" width="106.04" height="105.5"/>
      <rect class="cls-56" x="1272.48" y="316.5" width="106.04" height="105.5"/>
      <rect class="cls-56" x="1166.44" y="316.5" width="106.04" height="105.5"/>
      <rect class="cls-7" x="1060.4" y="316.5" width="106.04" height="105.5"/>
      <rect class="cls-16" x="954.36" y="316.5" width="106.04" height="105.5"/>
      <rect class="cls-33" x="848.32" y="316.5" width="106.04" height="105.5"/>
      <rect class="cls-56" x="742.28" y="316.5" width="106.04" height="105.5"/>
      <rect class="cls-23" x="636.24" y="316.5" width="106.04" height="105.5"/>
      <rect class="cls-25" x="530.2" y="316.5" width="106.04" height="105.5"/>
      <rect class="cls-25" x="424.16" y="316.5" width="106.04" height="105.5"/>
      <rect class="cls-60" x="318.12" y="316.5" width="106.04" height="105.5"/>
      <rect class="cls-32" x="212.08" y="316.5" width="106.04" height="105.5"/>
      <rect class="cls-56" x="1378.52" y="211" width="106.04" height="105.5"/>
      <rect class="cls-7" x="1272.48" y="211" width="106.04" height="105.5"/>
      <rect class="cls-56" x="1166.44" y="211" width="106.04" height="105.5"/>
      <rect class="cls-56" x="1060.4" y="211" width="106.04" height="105.5"/>
      <rect class="cls-7" x="954.36" y="211" width="106.04" height="105.5"/>
      <rect class="cls-7" x="848.32" y="211" width="106.04" height="105.5"/>
      <rect class="cls-7" x="742.28" y="211" width="106.04" height="105.5"/>
      <rect class="cls-56" x="636.24" y="211" width="106.04" height="105.5"/>
      <rect class="cls-23" x="530.2" y="211" width="106.04" height="105.5"/>
      <rect class="cls-60" x="424.16" y="211" width="106.04" height="105.5"/>
      <rect class="cls-52" x="318.12" y="211" width="106.04" height="105.5"/>
      <rect class="cls-56" x="1272.48" y="105.5" width="106.04" height="105.5"/>
      <rect class="cls-7" x="1166.44" y="105.5" width="106.04" height="105.5"/>
      <rect class="cls-7" x="1060.4" y="105.5" width="106.04" height="105.5"/>
      <rect class="cls-7" x="954.36" y="105.5" width="106.04" height="105.5"/>
      <rect class="cls-7" x="848.32" y="105.5" width="106.04" height="105.5"/>
      <rect class="cls-60" x="742.28" y="105.5" width="106.04" height="105.5"/>
      <rect class="cls-60" x="636.24" y="105.5" width="106.04" height="105.5"/>
      <rect class="cls-60" x="530.2" y="105.5" width="106.04" height="105.5"/>
      <rect class="cls-60" x="1272.48" width="106.04" height="105.5"/>
      <rect class="cls-60" x="1166.44" width="106.04" height="105.5"/>
      <rect class="cls-60" x="1060.4" width="106.04" height="105.5"/>
      <rect class="cls-60" x="954.36" width="106.04" height="105.5"/>
      <rect class="cls-60" x="848.32" width="106.04" height="105.5"/>
      <rect class="cls-32" x="742.28" width="106.04" height="105.5"/>
    </g>
  </g>
</svg>